ISO-10303-21;
HEADER;
FILE_DESCRIPTION (( 'STEP AP214' ),
    '1' );
FILE_NAME ('相机.STEP',
    '2026-09-16T03:28:11',
    ( '' ),
    ( '' ),
    'SwSTEP 2.0',
    'SolidWorks 2020',
    '' );
FILE_SCHEMA (( 'AUTOMOTIVE_DESIGN' ));
ENDSEC;

DATA;
#1 = ORIENTED_EDGE ( 'NONE', *, *, #186, .F. ) ;
#2 = ORIENTED_EDGE ( 'NONE', *, *, #279, .T. ) ;
#3 = DIRECTION ( 'NONE',  ( 0.000000000000000000, 0.000000000000000000, -1.000000000000000000 ) ) ;
#4 = DIRECTION ( 'NONE',  ( 0.000000000000000000, -0.000000000000000000, 1.000000000000000000 ) ) ;
#5 = DIRECTION ( 'NONE',  ( 0.000000000000000000, 0.000000000000000000, 1.000000000000000000 ) ) ;
#6 = VECTOR ( 'NONE', #246, 1000.000000000000000 ) ;
#7 = EDGE_LOOP ( 'NONE', ( #75, #27 ) ) ;
#8 = VECTOR ( 'NONE', #336, 1000.000000000000000 ) ;
#9 = ADVANCED_FACE ( 'NONE', ( #119 ), #125, .F. ) ;
#10 = ORIENTED_EDGE ( 'NONE', *, *, #351, .F. ) ;
#11 = PLANE ( 'NONE',  #282 ) ;
#12 = EDGE_CURVE ( 'NONE', #170, #361, #212, .T. ) ;
#13 = FACE_OUTER_BOUND ( 'NONE', #140, .T. ) ;
#14 = DIRECTION ( 'NONE',  ( 1.000000000000000000, 0.000000000000000000, 0.000000000000000000 ) ) ;
#15 = CARTESIAN_POINT ( 'NONE',  ( -3.174999999999999822, 10.00000000000000000, 9.250000000000000000 ) ) ;
#16 = CIRCLE ( 'NONE', #263, 3.174999999999999822 ) ;
#17 = DIRECTION ( 'NONE',  ( 0.000000000000000000, 0.000000000000000000, 1.000000000000000000 ) ) ;
#18 = LINE ( 'NONE', #30, #354 ) ;
#19 = ORIENTED_EDGE ( 'NONE', *, *, #120, .F. ) ;
#20 = CARTESIAN_POINT ( 'NONE',  ( 3.174999999999999822, 10.00000000000000000, 9.250000000000000000 ) ) ;
#21 = ADVANCED_FACE ( 'NONE', ( #264 ), #180, .T. ) ;
#22 = ORIENTED_EDGE ( 'NONE', *, *, #237, .T. ) ;
#23 = APPLICATION_CONTEXT ( 'automotive_design' ) ;
#24 = AXIS2_PLACEMENT_3D ( 'NONE', #190, #188, #350 ) ;
#25 = PRESENTATION_LAYER_ASSIGNMENT (  '', '', ( #60 ) ) ;
#26 = DIRECTION ( 'NONE',  ( -0.000000000000000000, 1.000000000000000000, 0.000000000000000000 ) ) ;
#27 = ORIENTED_EDGE ( 'NONE', *, *, #237, .F. ) ;
#28 = DIRECTION ( 'NONE',  ( 0.000000000000000000, 0.000000000000000000, -1.000000000000000000 ) ) ;
#29 = ORIENTED_EDGE ( 'NONE', *, *, #271, .F. ) ;
#30 = CARTESIAN_POINT ( 'NONE',  ( 19.25000000000000355, 32.78000000000000114, 19.25000000000000000 ) ) ;
#31 = UNCERTAINTY_MEASURE_WITH_UNIT (LENGTH_MEASURE( 1.000000000000000082E-05 ), #48, 'distance_accuracy_value', 'NONE');
#32 = VECTOR ( 'NONE', #164, 1000.000000000000000 ) ;
#33 = ORIENTED_EDGE ( 'NONE', *, *, #127, .T. ) ;
#34 = DIRECTION ( 'NONE',  ( -0.000000000000000000, 1.000000000000000000, 0.000000000000000000 ) ) ;
#35 = ORIENTED_EDGE ( 'NONE', *, *, #141, .T. ) ;
#36 = EDGE_CURVE ( 'NONE', #286, #225, #340, .T. ) ;
#37 =( NAMED_UNIT ( * ) PLANE_ANGLE_UNIT ( ) SI_UNIT ( $, .RADIAN. ) );
#38 = DIRECTION ( 'NONE',  ( -0.000000000000000000, -1.000000000000000000, -0.000000000000000000 ) ) ;
#39 = VECTOR ( 'NONE', #3, 1000.000000000000000 ) ;
#40 = APPLICATION_PROTOCOL_DEFINITION ( 'draft international standard', 'automotive_design', 1998, #23 ) ;
#41 = CARTESIAN_POINT ( 'NONE',  ( -19.24999999999999645, 32.78000000000000114, 19.25000000000000000 ) ) ;
#42 = EDGE_CURVE ( 'NONE', #286, #200, #122, .T. ) ;
#43 = FACE_BOUND ( 'NONE', #198, .T. ) ;
#44 = SURFACE_SIDE_STYLE ('',( #106 ) ) ;
#45 = AXIS2_PLACEMENT_3D ( 'NONE', #73, #34, #4 ) ;
#46 = AXIS2_PLACEMENT_3D ( 'NONE', #230, #139, #355 ) ;
#47 = CARTESIAN_POINT ( 'NONE',  ( -19.24999999999999645, 32.78000000000000114, -19.25000000000000000 ) ) ;
#48 =( LENGTH_UNIT ( ) NAMED_UNIT ( * ) SI_UNIT ( .MILLI., .METRE. ) );
#49 = ADVANCED_FACE ( 'NONE', ( #99 ), #11, .T. ) ;
#50 = CARTESIAN_POINT ( 'NONE',  ( 0.000000000000000000, 10.00000000000000000, 19.25000000000000000 ) ) ;
#51 = PRODUCT_DEFINITION_SHAPE ( 'NONE', 'NONE',  #226 ) ;
#52 = FACE_OUTER_BOUND ( 'NONE', #71, .T. ) ;
#53 = VERTEX_POINT ( 'NONE', #102 ) ;
#54 = ADVANCED_FACE ( 'NONE', ( #213, #187 ), #128, .F. ) ;
#55 = FACE_OUTER_BOUND ( 'NONE', #158, .T. ) ;
#56 = VERTEX_POINT ( 'NONE', #149 ) ;
#57 = LINE ( 'NONE', #224, #349 ) ;
#58 = VERTEX_POINT ( 'NONE', #216 ) ;
#59 = COLOUR_RGB ( '',1.000000000000000000, 1.000000000000000000, 1.000000000000000000 ) ;
#60 = STYLED_ITEM ( 'NONE', ( #345 ), #171 ) ;
#61 = DIRECTION ( 'NONE',  ( 0.000000000000000000, 0.000000000000000000, 1.000000000000000000 ) ) ;
#62 = ORIENTED_EDGE ( 'NONE', *, *, #42, .F. ) ;
#63 = DIRECTION ( 'NONE',  ( -0.000000000000000000, -0.000000000000000000, 1.000000000000000000 ) ) ;
#64 = ORIENTED_EDGE ( 'NONE', *, *, #86, .T. ) ;
#65 = ADVANCED_FACE ( 'NONE', ( #245 ), #192, .T. ) ;
#66 = CARTESIAN_POINT ( 'NONE',  ( -19.24999999999999645, 0.000000000000000000, -19.25000000000000000 ) ) ;
#67 = DIRECTION ( 'NONE',  ( 0.000000000000000000, -0.000000000000000000, -1.000000000000000000 ) ) ;
#68 = AXIS2_PLACEMENT_3D ( 'NONE', #329, #88, #137 ) ;
#69 = EDGE_LOOP ( 'NONE', ( #96, #29, #290, #231 ) ) ;
#70 = PRODUCT_RELATED_PRODUCT_CATEGORY ( 'part', '', ( #203 ) ) ;
#71 = EDGE_LOOP ( 'NONE', ( #10, #310, #253, #33 ) ) ;
#72 = SURFACE_STYLE_FILL_AREA ( #100 ) ;
#73 = CARTESIAN_POINT ( 'NONE',  ( 0.000000000000000000, 60.00000000000000000, 0.000000000000000000 ) ) ;
#74 = PRODUCT_CONTEXT ( 'NONE', #87, 'mechanical' ) ;
#75 = ORIENTED_EDGE ( 'NONE', *, *, #279, .F. ) ;
#76 = CARTESIAN_POINT ( 'NONE',  ( 19.25000000000000355, 0.000000000000000000, 19.25000000000000000 ) ) ;
#77 = DIRECTION ( 'NONE',  ( 0.000000000000000000, 0.000000000000000000, -1.000000000000000000 ) ) ;
#78 = DIRECTION ( 'NONE',  ( 0.000000000000000000, 0.000000000000000000, -1.000000000000000000 ) ) ;
#79 = AXIS2_PLACEMENT_3D ( 'NONE', #235, #283, #101 ) ;
#80 = VECTOR ( 'NONE', #307, 1000.000000000000000 ) ;
#81 = EDGE_CURVE ( 'NONE', #286, #126, #352, .T. ) ;
#82 = DIRECTION ( 'NONE',  ( -1.000000000000000000, 0.000000000000000000, -0.000000000000000000 ) ) ;
#83 = FACE_OUTER_BOUND ( 'NONE', #69, .T. ) ;
#84 = DIRECTION ( 'NONE',  ( -1.000000000000000000, 0.000000000000000000, 0.000000000000000000 ) ) ;
#85 =( GEOMETRIC_REPRESENTATION_CONTEXT ( 3 ) GLOBAL_UNCERTAINTY_ASSIGNED_CONTEXT ( ( #31 ) ) GLOBAL_UNIT_ASSIGNED_CONTEXT ( ( #48, #134, #108 ) ) REPRESENTATION_CONTEXT ( 'NONE', 'WORKASPACE' ) );
#86 = EDGE_CURVE ( 'NONE', #58, #207, #208, .T. ) ;
#87 = APPLICATION_CONTEXT ( 'automotive_design' ) ;
#88 = DIRECTION ( 'NONE',  ( 0.000000000000000000, 0.000000000000000000, 1.000000000000000000 ) ) ;
#89 = ORIENTED_EDGE ( 'NONE', *, *, #293, .F. ) ;
#90 = DIRECTION ( 'NONE',  ( 0.000000000000000000, 0.000000000000000000, 1.000000000000000000 ) ) ;
#91 = ORIENTED_EDGE ( 'NONE', *, *, #127, .F. ) ;
#92 = CARTESIAN_POINT ( 'NONE',  ( 0.000000000000000000, 60.00000000000000000, 0.000000000000000000 ) ) ;
#93 = VECTOR ( 'NONE', #107, 1000.000000000000000 ) ;
#94 = DIRECTION ( 'NONE',  ( -0.000000000000000000, -1.000000000000000000, -0.000000000000000000 ) ) ;
#95 = ADVANCED_FACE ( 'NONE', ( #295 ), #266, .T. ) ;
#96 = ORIENTED_EDGE ( 'NONE', *, *, #344, .T. ) ;
#97 = ORIENTED_EDGE ( 'NONE', *, *, #285, .F. ) ;
#98 = AXIS2_PLACEMENT_3D ( 'NONE', #172, #26, #302 ) ;
#99 = FACE_OUTER_BOUND ( 'NONE', #257, .T. ) ;
#100 = FILL_AREA_STYLE ('',( #183 ) ) ;
#101 = DIRECTION ( 'NONE',  ( 1.000000000000000000, 0.000000000000000000, 0.000000000000000000 ) ) ;
#102 = CARTESIAN_POINT ( 'NONE',  ( -3.174999999999999822, 10.00000000000000000, 9.250000000000000000 ) ) ;
#103 = DIRECTION ( 'NONE',  ( 0.000000000000000000, -1.000000000000000000, 0.000000000000000000 ) ) ;
#104 = COLOUR_RGB ( '',1.000000000000000000, 1.000000000000000000, 1.000000000000000000 ) ;
#105 = ADVANCED_FACE ( 'NONE', ( #13 ), #218, .T. ) ;
#106 = SURFACE_STYLE_FILL_AREA ( #267 ) ;
#107 = DIRECTION ( 'NONE',  ( 0.000000000000000000, 0.000000000000000000, -1.000000000000000000 ) ) ;
#108 =( NAMED_UNIT ( * ) SI_UNIT ( $, .STERADIAN. ) SOLID_ANGLE_UNIT ( ) );
#109 = AXIS2_PLACEMENT_3D ( 'NONE', #178, #145, #142 ) ;
#110 = MANIFOLD_SOLID_BREP ( '切除-拉伸1', #113 ) ;
#111 = PLANE ( 'NONE',  #284 ) ;
#112 = LINE ( 'NONE', #20, #8 ) ;
#113 = CLOSED_SHELL ( 'NONE', ( #9, #316, #166, #147, #260, #65, #54, #49, #95, #21, #232, #105 ) ) ;
#114 = DIRECTION ( 'NONE',  ( 0.000000000000000000, 0.000000000000000000, -1.000000000000000000 ) ) ;
#115 = CARTESIAN_POINT ( 'NONE',  ( 3.174999999999999822, 10.00000000000000000, 9.250000000000000000 ) ) ;
#116 = EDGE_CURVE ( 'NONE', #338, #150, #269, .T. ) ;
#117 = LINE ( 'NONE', #328, #138 ) ;
#118 = ORIENTED_EDGE ( 'NONE', *, *, #293, .T. ) ;
#119 = FACE_OUTER_BOUND ( 'NONE', #330, .T. ) ;
#120 = EDGE_CURVE ( 'NONE', #56, #150, #194, .T. ) ;
#121 = APPLICATION_PROTOCOL_DEFINITION ( 'draft international standard', 'automotive_design', 1998, #87 ) ;
#122 = LINE ( 'NONE', #341, #317 ) ;
#123 = AXIS2_PLACEMENT_3D ( 'NONE', #92, #360, #90 ) ;
#124 = LINE ( 'NONE', #211, #215 ) ;
#125 = CYLINDRICAL_SURFACE ( 'NONE', #79, 3.174999999999999822 ) ;
#126 = VERTEX_POINT ( 'NONE', #165 ) ;
#127 = EDGE_CURVE ( 'NONE', #200, #338, #297, .T. ) ;
#128 = PLANE ( 'NONE',  #362 ) ;
#129 = AXIS2_PLACEMENT_3D ( 'NONE', #322, #77, #131 ) ;
#130 = CARTESIAN_POINT ( 'NONE',  ( 0.000000000000000000, 60.00000000000000000, -14.00000000000000000 ) ) ;
#131 = DIRECTION ( 'NONE',  ( -1.000000000000000000, 0.000000000000000000, -0.000000000000000000 ) ) ;
#132 = PLANE ( 'NONE',  #296 ) ;
#133 = DIRECTION ( 'NONE',  ( -0.000000000000000000, -1.000000000000000000, -0.000000000000000000 ) ) ;
#134 =( NAMED_UNIT ( * ) PLANE_ANGLE_UNIT ( ) SI_UNIT ( $, .RADIAN. ) );
#135 = DIRECTION ( 'NONE',  ( -0.000000000000000000, 1.000000000000000000, -0.000000000000000000 ) ) ;
#136 = ORIENTED_EDGE ( 'NONE', *, *, #255, .F. ) ;
#137 = DIRECTION ( 'NONE',  ( 1.000000000000000000, 0.000000000000000000, 0.000000000000000000 ) ) ;
#138 = VECTOR ( 'NONE', #275, 1000.000000000000000 ) ;
#139 = DIRECTION ( 'NONE',  ( -0.000000000000000000, 1.000000000000000000, -0.000000000000000000 ) ) ;
#140 = EDGE_LOOP ( 'NONE', ( #313, #151 ) ) ;
#141 = EDGE_CURVE ( 'NONE', #207, #58, #16, .T. ) ;
#142 = DIRECTION ( 'NONE',  ( 1.000000000000000000, 0.000000000000000000, 0.000000000000000000 ) ) ;
#143 = UNCERTAINTY_MEASURE_WITH_UNIT (LENGTH_MEASURE( 1.000000000000000082E-05 ), #157, 'distance_accuracy_value', 'NONE');
#144 = ORIENTED_EDGE ( 'NONE', *, *, #309, .T. ) ;
#145 = DIRECTION ( 'NONE',  ( 0.000000000000000000, 0.000000000000000000, 1.000000000000000000 ) ) ;
#146 = ORIENTED_EDGE ( 'NONE', *, *, #120, .T. ) ;
#147 = ADVANCED_FACE ( 'NONE', ( #43, #83 ), #132, .F. ) ;
#148 = CARTESIAN_POINT ( 'NONE',  ( 1.714505518806294638E-15, 32.78000000000000114, 14.00000000000000000 ) ) ;
#149 = CARTESIAN_POINT ( 'NONE',  ( 19.25000000000000355, 0.000000000000000000, 19.25000000000000000 ) ) ;
#150 = VERTEX_POINT ( 'NONE', #159 ) ;
#151 = ORIENTED_EDGE ( 'NONE', *, *, #186, .T. ) ;
#152 = CIRCLE ( 'NONE', #109, 3.174999999999999822 ) ;
#153 = CIRCLE ( 'NONE', #98, 14.00000000000000000 ) ;
#154 = SURFACE_SIDE_STYLE ('',( #72 ) ) ;
#155 = VERTEX_POINT ( 'NONE', #130 ) ;
#156 = EDGE_CURVE ( 'NONE', #53, #207, #298, .T. ) ;
#157 =( LENGTH_UNIT ( ) NAMED_UNIT ( * ) SI_UNIT ( .MILLI., .METRE. ) );
#158 = EDGE_LOOP ( 'NONE', ( #146, #318, #97, #278 ) ) ;
#159 = CARTESIAN_POINT ( 'NONE',  ( 19.25000000000000355, 0.000000000000000000, -19.25000000000000000 ) ) ;
#160 = VECTOR ( 'NONE', #320, 1000.000000000000000 ) ;
#161 = CIRCLE ( 'NONE', #123, 14.00000000000000000 ) ;
#162 = CARTESIAN_POINT ( 'NONE',  ( 0.000000000000000000, 60.00000000000000000, 0.000000000000000000 ) ) ;
#163 = VECTOR ( 'NONE', #94, 1000.000000000000000 ) ;
#164 = DIRECTION ( 'NONE',  ( -0.000000000000000000, -1.000000000000000000, -0.000000000000000000 ) ) ;
#165 = CARTESIAN_POINT ( 'NONE',  ( 19.25000000000000355, 32.78000000000000114, 19.25000000000000000 ) ) ;
#166 = ADVANCED_FACE ( 'NONE', ( #52 ), #111, .T. ) ;
#167 = CARTESIAN_POINT ( 'NONE',  ( 1.714505518806294638E-15, 60.00000000000000000, 14.00000000000000000 ) ) ;
#168 = ORIENTED_EDGE ( 'NONE', *, *, #309, .F. ) ;
#169 = DIRECTION ( 'NONE',  ( 0.000000000000000000, 0.000000000000000000, -1.000000000000000000 ) ) ;
#170 = VERTEX_POINT ( 'NONE', #167 ) ;
#171 = ADVANCED_BREP_SHAPE_REPRESENTATION ( '相机', ( #110, #251 ), #193 ) ;
#172 = CARTESIAN_POINT ( 'NONE',  ( 0.000000000000000000, 60.00000000000000000, 0.000000000000000000 ) ) ;
#173 = ORIENTED_EDGE ( 'NONE', *, *, #12, .F. ) ;
#174 = VECTOR ( 'NONE', #299, 1000.000000000000000 ) ;
#175 = AXIS2_PLACEMENT_3D ( 'NONE', #223, #135, #28 ) ;
#176 = DIRECTION ( 'NONE',  ( -0.000000000000000000, -1.000000000000000000, -0.000000000000000000 ) ) ;
#177 = EDGE_LOOP ( 'NONE', ( #173, #335, #144, #2 ) ) ;
#178 = CARTESIAN_POINT ( 'NONE',  ( 0.000000000000000000, 10.00000000000000000, 9.250000000000000000 ) ) ;
#179 = CARTESIAN_POINT ( 'NONE',  ( -19.24999999999999645, 0.000000000000000000, 19.25000000000000000 ) ) ;
#180 = PLANE ( 'NONE',  #45 ) ;
#181 = CIRCLE ( 'NONE', #68, 3.174999999999999822 ) ;
#182 = ORIENTED_EDGE ( 'NONE', *, *, #333, .T. ) ;
#183 = FILL_AREA_STYLE_COLOUR ( '', #104 ) ;
#184 = DIRECTION ( 'NONE',  ( 0.000000000000000000, -0.000000000000000000, -1.000000000000000000 ) ) ;
#185 = CARTESIAN_POINT ( 'NONE',  ( 1.714505518806294638E-15, 60.00000000000000000, 14.00000000000000000 ) ) ;
#186 = EDGE_CURVE ( 'NONE', #53, #258, #181, .T. ) ;
#187 = FACE_OUTER_BOUND ( 'NONE', #343, .T. ) ;
#188 = DIRECTION ( 'NONE',  ( 0.000000000000000000, 0.000000000000000000, 1.000000000000000000 ) ) ;
#189 = EDGE_CURVE ( 'NONE', #155, #170, #153, .T. ) ;
#190 = CARTESIAN_POINT ( 'NONE',  ( 0.000000000000000000, 10.00000000000000000, 9.250000000000000000 ) ) ;
#191 = AXIS2_PLACEMENT_3D ( 'NONE', #301, #63, #272 ) ;
#192 = PLANE ( 'NONE',  #129 ) ;
#193 =( GEOMETRIC_REPRESENTATION_CONTEXT ( 3 ) GLOBAL_UNCERTAINTY_ASSIGNED_CONTEXT ( ( #143 ) ) GLOBAL_UNIT_ASSIGNED_CONTEXT ( ( #157, #37, #261 ) ) REPRESENTATION_CONTEXT ( 'NONE', 'WORKASPACE' ) );
#194 = LINE ( 'NONE', #76, #93 ) ;
#195 = EDGE_CURVE ( 'NONE', #170, #155, #161, .T. ) ;
#196 = DIRECTION ( 'NONE',  ( 0.000000000000000000, 0.000000000000000000, 1.000000000000000000 ) ) ;
#197 = FACE_OUTER_BOUND ( 'NONE', #233, .T. ) ;
#198 = EDGE_LOOP ( 'NONE', ( #305, #321 ) ) ;
#199 = DIRECTION ( 'NONE',  ( -0.000000000000000000, -1.000000000000000000, -0.000000000000000000 ) ) ;
#200 = VERTEX_POINT ( 'NONE', #247 ) ;
#201 = CARTESIAN_POINT ( 'NONE',  ( 0.000000000000000000, 60.00000000000000000, -14.00000000000000000 ) ) ;
#202 = MECHANICAL_DESIGN_GEOMETRIC_PRESENTATION_REPRESENTATION (  '', ( #214 ), #85 ) ;
#203 = PRODUCT ( '相机', '相机', '', ( #74 ) ) ;
#204 = CARTESIAN_POINT ( 'NONE',  ( 19.25000000000000355, 32.78000000000000114, -19.25000000000000000 ) ) ;
#205 = EDGE_LOOP ( 'NONE', ( #262, #91, #118, #182 ) ) ;
#206 = ORIENTED_EDGE ( 'NONE', *, *, #156, .F. ) ;
#207 = VERTEX_POINT ( 'NONE', #358 ) ;
#208 = CIRCLE ( 'NONE', #348, 3.174999999999999822 ) ;
#209 = LINE ( 'NONE', #179, #39 ) ;
#210 = CARTESIAN_POINT ( 'NONE',  ( 0.000000000000000000, 0.000000000000000000, 0.000000000000000000 ) ) ;
#211 = CARTESIAN_POINT ( 'NONE',  ( -19.24999999999999645, 0.000000000000000000, 19.25000000000000000 ) ) ;
#212 = LINE ( 'NONE', #185, #160 ) ;
#213 = FACE_BOUND ( 'NONE', #7, .T. ) ;
#214 = STYLED_ITEM ( 'NONE', ( #323 ), #110 ) ;
#215 = VECTOR ( 'NONE', #314, 1000.000000000000000 ) ;
#216 = CARTESIAN_POINT ( 'NONE',  ( 3.174999999999999822, 10.00000000000000000, 19.25000000000000000 ) ) ;
#217 = CARTESIAN_POINT ( 'NONE',  ( -19.24999999999999645, 32.78000000000000114, 19.25000000000000000 ) ) ;
#218 = PLANE ( 'NONE',  #24 ) ;
#219 = AXIS2_PLACEMENT_3D ( 'NONE', #162, #133, #78 ) ;
#220 = CARTESIAN_POINT ( 'NONE',  ( -19.24999999999999645, 32.78000000000000114, 19.25000000000000000 ) ) ;
#221 = EDGE_CURVE ( 'NONE', #258, #53, #152, .T. ) ;
#222 = CARTESIAN_POINT ( 'NONE',  ( -19.24999999999999645, 0.000000000000000000, -19.25000000000000000 ) ) ;
#223 = CARTESIAN_POINT ( 'NONE',  ( 0.000000000000000000, 32.78000000000000114, 0.000000000000000000 ) ) ;
#224 = CARTESIAN_POINT ( 'NONE',  ( 19.25000000000000355, 32.78000000000000114, 19.25000000000000000 ) ) ;
#225 = VERTEX_POINT ( 'NONE', #256 ) ;
#226 = PRODUCT_DEFINITION ( '未知', '', #300, #312 ) ;
#227 = LINE ( 'NONE', #331, #163 ) ;
#228 = PLANE ( 'NONE',  #308 ) ;
#229 = ORIENTED_EDGE ( 'NONE', *, *, #344, .F. ) ;
#230 = CARTESIAN_POINT ( 'NONE',  ( 0.000000000000000000, 32.78000000000000114, 0.000000000000000000 ) ) ;
#231 = ORIENTED_EDGE ( 'NONE', *, *, #36, .T. ) ;
#232 = ADVANCED_FACE ( 'NONE', ( #197 ), #254, .F. ) ;
#233 = EDGE_LOOP ( 'NONE', ( #206, #315, #347, #64 ) ) ;
#234 = DIRECTION ( 'NONE',  ( 1.000000000000000000, 0.000000000000000000, 0.000000000000000000 ) ) ;
#235 = CARTESIAN_POINT ( 'NONE',  ( 0.000000000000000000, 10.00000000000000000, 9.250000000000000000 ) ) ;
#236 = DIRECTION ( 'NONE',  ( 0.000000000000000000, 0.000000000000000000, -1.000000000000000000 ) ) ;
#237 = EDGE_CURVE ( 'NONE', #361, #248, #324, .T. ) ;
#238 = UNCERTAINTY_MEASURE_WITH_UNIT (LENGTH_MEASURE( 1.000000000000000082E-05 ), #281, 'distance_accuracy_value', 'NONE');
#239 = ORIENTED_EDGE ( 'NONE', *, *, #156, .T. ) ;
#240 =( NAMED_UNIT ( * ) SI_UNIT ( $, .STERADIAN. ) SOLID_ANGLE_UNIT ( ) );
#241 = ORIENTED_EDGE ( 'NONE', *, *, #351, .T. ) ;
#242 = CARTESIAN_POINT ( 'NONE',  ( 0.000000000000000000, 32.78000000000000114, 0.000000000000000000 ) ) ;
#243 = DIRECTION ( 'NONE',  ( -0.000000000000000000, -0.000000000000000000, 1.000000000000000000 ) ) ;
#244 = FILL_AREA_STYLE_COLOUR ( '', #59 ) ;
#245 = FACE_OUTER_BOUND ( 'NONE', #205, .T. ) ;
#246 = DIRECTION ( 'NONE',  ( 1.000000000000000000, 0.000000000000000000, 0.000000000000000000 ) ) ;
#247 = CARTESIAN_POINT ( 'NONE',  ( -19.24999999999999645, 32.78000000000000114, -19.25000000000000000 ) ) ;
#248 = VERTEX_POINT ( 'NONE', #252 ) ;
#249 = FACE_OUTER_BOUND ( 'NONE', #292, .T. ) ;
#250 = PRESENTATION_LAYER_ASSIGNMENT (  '', '', ( #214 ) ) ;
#251 = AXIS2_PLACEMENT_3D ( 'NONE', #291, #5, #234 ) ;
#252 = CARTESIAN_POINT ( 'NONE',  ( 0.000000000000000000, 32.78000000000000114, -14.00000000000000000 ) ) ;
#253 = ORIENTED_EDGE ( 'NONE', *, *, #42, .T. ) ;
#254 = CYLINDRICAL_SURFACE ( 'NONE', #191, 3.174999999999999822 ) ;
#255 = EDGE_CURVE ( 'NONE', #258, #58, #112, .T. ) ;
#256 = CARTESIAN_POINT ( 'NONE',  ( -19.24999999999999645, 0.000000000000000000, 19.25000000000000000 ) ) ;
#257 = EDGE_LOOP ( 'NONE', ( #241, #265, #19, #229 ) ) ;
#258 = VERTEX_POINT ( 'NONE', #115 ) ;
#259 = ORIENTED_EDGE ( 'NONE', *, *, #81, .T. ) ;
#260 = ADVANCED_FACE ( 'NONE', ( #55 ), #228, .F. ) ;
#261 =( NAMED_UNIT ( * ) SI_UNIT ( $, .STERADIAN. ) SOLID_ANGLE_UNIT ( ) );
#262 = ORIENTED_EDGE ( 'NONE', *, *, #116, .F. ) ;
#263 = AXIS2_PLACEMENT_3D ( 'NONE', #268, #327, #14 ) ;
#264 = FACE_OUTER_BOUND ( 'NONE', #288, .T. ) ;
#265 = ORIENTED_EDGE ( 'NONE', *, *, #116, .T. ) ;
#266 = CYLINDRICAL_SURFACE ( 'NONE', #219, 14.00000000000000000 ) ;
#267 = FILL_AREA_STYLE ('',( #244 ) ) ;
#268 = CARTESIAN_POINT ( 'NONE',  ( 0.000000000000000000, 10.00000000000000000, 19.25000000000000000 ) ) ;
#269 = LINE ( 'NONE', #222, #174 ) ;
#270 = DIRECTION ( 'NONE',  ( 0.000000000000000000, 0.000000000000000000, -1.000000000000000000 ) ) ;
#271 = EDGE_CURVE ( 'NONE', #126, #56, #18, .T. ) ;
#272 = DIRECTION ( 'NONE',  ( 1.000000000000000000, 0.000000000000000000, 0.000000000000000000 ) ) ;
#273 = LINE ( 'NONE', #201, #80 ) ;
#274 = ORIENTED_EDGE ( 'NONE', *, *, #285, .T. ) ;
#275 = DIRECTION ( 'NONE',  ( 1.000000000000000000, 0.000000000000000000, 0.000000000000000000 ) ) ;
#276 = AXIS2_PLACEMENT_3D ( 'NONE', #277, #176, #114 ) ;
#277 = CARTESIAN_POINT ( 'NONE',  ( 0.000000000000000000, 60.00000000000000000, 0.000000000000000000 ) ) ;
#278 = ORIENTED_EDGE ( 'NONE', *, *, #271, .T. ) ;
#279 = EDGE_CURVE ( 'NONE', #248, #361, #353, .T. ) ;
#280 = CARTESIAN_POINT ( 'NONE',  ( 19.25000000000000355, 32.78000000000000114, 19.25000000000000000 ) ) ;
#281 =( LENGTH_UNIT ( ) NAMED_UNIT ( * ) SI_UNIT ( .MILLI., .METRE. ) );
#282 = AXIS2_PLACEMENT_3D ( 'NONE', #210, #319, #184 ) ;
#283 = DIRECTION ( 'NONE',  ( -0.000000000000000000, -0.000000000000000000, 1.000000000000000000 ) ) ;
#284 = AXIS2_PLACEMENT_3D ( 'NONE', #311, #304, #196 ) ;
#285 = EDGE_CURVE ( 'NONE', #126, #337, #57, .T. ) ;
#286 = VERTEX_POINT ( 'NONE', #334 ) ;
#287 = SHAPE_DEFINITION_REPRESENTATION ( #51, #171 ) ;
#288 = EDGE_LOOP ( 'NONE', ( #332, #346 ) ) ;
#289 =( NAMED_UNIT ( * ) PLANE_ANGLE_UNIT ( ) SI_UNIT ( $, .RADIAN. ) );
#290 = ORIENTED_EDGE ( 'NONE', *, *, #81, .F. ) ;
#291 = CARTESIAN_POINT ( 'NONE',  ( 0.000000000000000000, 0.000000000000000000, 0.000000000000000000 ) ) ;
#292 = EDGE_LOOP ( 'NONE', ( #303, #359, #22, #168 ) ) ;
#293 = EDGE_CURVE ( 'NONE', #200, #337, #117, .T. ) ;
#294 = SURFACE_STYLE_USAGE ( .BOTH. , #44 ) ;
#295 = FACE_OUTER_BOUND ( 'NONE', #177, .T. ) ;
#296 = AXIS2_PLACEMENT_3D ( 'NONE', #220, #270, #82 ) ;
#297 = LINE ( 'NONE', #47, #32 ) ;
#298 = LINE ( 'NONE', #15, #342 ) ;
#299 = DIRECTION ( 'NONE',  ( 1.000000000000000000, 0.000000000000000000, 0.000000000000000000 ) ) ;
#300 = PRODUCT_DEFINITION_FORMATION_WITH_SPECIFIED_SOURCE ( '任何', '', #203, .NOT_KNOWN. ) ;
#301 = CARTESIAN_POINT ( 'NONE',  ( 0.000000000000000000, 10.00000000000000000, 9.250000000000000000 ) ) ;
#302 = DIRECTION ( 'NONE',  ( 0.000000000000000000, 0.000000000000000000, 1.000000000000000000 ) ) ;
#303 = ORIENTED_EDGE ( 'NONE', *, *, #195, .F. ) ;
#304 = DIRECTION ( 'NONE',  ( -1.000000000000000000, 0.000000000000000000, 0.000000000000000000 ) ) ;
#305 = ORIENTED_EDGE ( 'NONE', *, *, #86, .F. ) ;
#306 = VECTOR ( 'NONE', #38, 1000.000000000000000 ) ;
#307 = DIRECTION ( 'NONE',  ( -0.000000000000000000, -1.000000000000000000, -0.000000000000000000 ) ) ;
#308 = AXIS2_PLACEMENT_3D ( 'NONE', #280, #84, #61 ) ;
#309 = EDGE_CURVE ( 'NONE', #155, #248, #273, .T. ) ;
#310 = ORIENTED_EDGE ( 'NONE', *, *, #36, .F. ) ;
#311 = CARTESIAN_POINT ( 'NONE',  ( -19.24999999999999645, 32.78000000000000114, 19.25000000000000000 ) ) ;
#312 = PRODUCT_DEFINITION_CONTEXT ( 'detailed design', #23, 'design' ) ;
#313 = ORIENTED_EDGE ( 'NONE', *, *, #221, .T. ) ;
#314 = DIRECTION ( 'NONE',  ( 1.000000000000000000, 0.000000000000000000, 0.000000000000000000 ) ) ;
#315 = ORIENTED_EDGE ( 'NONE', *, *, #221, .F. ) ;
#316 = ADVANCED_FACE ( 'NONE', ( #249 ), #357, .T. ) ;
#317 = VECTOR ( 'NONE', #236, 1000.000000000000000 ) ;
#318 = ORIENTED_EDGE ( 'NONE', *, *, #333, .F. ) ;
#319 = DIRECTION ( 'NONE',  ( 0.000000000000000000, -1.000000000000000000, 0.000000000000000000 ) ) ;
#320 = DIRECTION ( 'NONE',  ( -0.000000000000000000, -1.000000000000000000, -0.000000000000000000 ) ) ;
#321 = ORIENTED_EDGE ( 'NONE', *, *, #141, .F. ) ;
#322 = CARTESIAN_POINT ( 'NONE',  ( -19.24999999999999645, 32.78000000000000114, -19.25000000000000000 ) ) ;
#323 = PRESENTATION_STYLE_ASSIGNMENT (( #294 ) ) ;
#324 = CIRCLE ( 'NONE', #46, 14.00000000000000000 ) ;
#325 = MECHANICAL_DESIGN_GEOMETRIC_PRESENTATION_REPRESENTATION (  '', ( #60 ), #356 ) ;
#326 = DIRECTION ( 'NONE',  ( 1.000000000000000000, 0.000000000000000000, 0.000000000000000000 ) ) ;
#327 = DIRECTION ( 'NONE',  ( 0.000000000000000000, 0.000000000000000000, 1.000000000000000000 ) ) ;
#328 = CARTESIAN_POINT ( 'NONE',  ( -19.24999999999999645, 32.78000000000000114, -19.25000000000000000 ) ) ;
#329 = CARTESIAN_POINT ( 'NONE',  ( 0.000000000000000000, 10.00000000000000000, 9.250000000000000000 ) ) ;
#330 = EDGE_LOOP ( 'NONE', ( #1, #239, #35, #136 ) ) ;
#331 = CARTESIAN_POINT ( 'NONE',  ( 19.25000000000000355, 32.78000000000000114, -19.25000000000000000 ) ) ;
#332 = ORIENTED_EDGE ( 'NONE', *, *, #189, .T. ) ;
#333 = EDGE_CURVE ( 'NONE', #337, #150, #227, .T. ) ;
#334 = CARTESIAN_POINT ( 'NONE',  ( -19.24999999999999645, 32.78000000000000114, 19.25000000000000000 ) ) ;
#335 = ORIENTED_EDGE ( 'NONE', *, *, #189, .F. ) ;
#336 = DIRECTION ( 'NONE',  ( -0.000000000000000000, -0.000000000000000000, 1.000000000000000000 ) ) ;
#337 = VERTEX_POINT ( 'NONE', #204 ) ;
#338 = VERTEX_POINT ( 'NONE', #66 ) ;
#339 = SURFACE_STYLE_USAGE ( .BOTH. , #154 ) ;
#340 = LINE ( 'NONE', #41, #306 ) ;
#341 = CARTESIAN_POINT ( 'NONE',  ( -19.24999999999999645, 32.78000000000000114, 19.25000000000000000 ) ) ;
#342 = VECTOR ( 'NONE', #243, 1000.000000000000000 ) ;
#343 = EDGE_LOOP ( 'NONE', ( #62, #259, #274, #89 ) ) ;
#344 = EDGE_CURVE ( 'NONE', #225, #56, #124, .T. ) ;
#345 = PRESENTATION_STYLE_ASSIGNMENT (( #339 ) ) ;
#346 = ORIENTED_EDGE ( 'NONE', *, *, #195, .T. ) ;
#347 = ORIENTED_EDGE ( 'NONE', *, *, #255, .T. ) ;
#348 = AXIS2_PLACEMENT_3D ( 'NONE', #50, #17, #326 ) ;
#349 = VECTOR ( 'NONE', #169, 1000.000000000000000 ) ;
#350 = DIRECTION ( 'NONE',  ( 1.000000000000000000, 0.000000000000000000, -0.000000000000000000 ) ) ;
#351 = EDGE_CURVE ( 'NONE', #225, #338, #209, .T. ) ;
#352 = LINE ( 'NONE', #217, #6 ) ;
#353 = CIRCLE ( 'NONE', #175, 14.00000000000000000 ) ;
#354 = VECTOR ( 'NONE', #199, 1000.000000000000000 ) ;
#355 = DIRECTION ( 'NONE',  ( 0.000000000000000000, 0.000000000000000000, -1.000000000000000000 ) ) ;
#356 =( GEOMETRIC_REPRESENTATION_CONTEXT ( 3 ) GLOBAL_UNCERTAINTY_ASSIGNED_CONTEXT ( ( #238 ) ) GLOBAL_UNIT_ASSIGNED_CONTEXT ( ( #281, #289, #240 ) ) REPRESENTATION_CONTEXT ( 'NONE', 'WORKASPACE' ) );
#357 = CYLINDRICAL_SURFACE ( 'NONE', #276, 14.00000000000000000 ) ;
#358 = CARTESIAN_POINT ( 'NONE',  ( -3.174999999999999822, 10.00000000000000000, 19.25000000000000000 ) ) ;
#359 = ORIENTED_EDGE ( 'NONE', *, *, #12, .T. ) ;
#360 = DIRECTION ( 'NONE',  ( -0.000000000000000000, 1.000000000000000000, 0.000000000000000000 ) ) ;
#361 = VERTEX_POINT ( 'NONE', #148 ) ;
#362 = AXIS2_PLACEMENT_3D ( 'NONE', #242, #103, #67 ) ;
ENDSEC;
END-ISO-10303-21;
